<svg version="1.0" xmlns="http://www.w3.org/2000/svg" width="346.667" height="346.667" viewBox="0 0 260 260"><path d="M13.2 85.7C11.7 87 10.1 88 9.7 88c-.5 0-.6.4-.3.9s0 1.4-.7 1.9c-1.9 1.6-2 8.7-.2 12.2 1.7 3.2 5.5 7.6 5.5 6.2 0-.4.4-.1.9.6 1 1.7 8.2 1.8 12 .2 3.6-1.5 7.6-7.3 8-11.8.4-5.1-3.2-11.6-7.7-13.6-4.9-2.2-10.7-1.8-14 1.1zm62.3-1.8c-1.1.5-2.3.7-2.7.4-.5-.2-.8.1-.8.8 0 .7-.3 1-.6.6-.5-.5-6 4.6-9 8.5-1.3 1.7-3.4 9.9-2.8 11 .3.4.1.8-.3.8-.5 0-.9.8-1 1.7-.1 1-.4 3.1-.8 4.8-.3 1.6-.7 3.9-.9 5-.3 1.7-.7 3.5-2.2 9.7-.1.5-.2 1.1-.3 1.5 0 .5-10 .8-22.1.7-25-.1-25.7.1-24.6 7.1.4 2.1.8 4.1 1.1 4.5.2.4.7 2.2.9 4.1 1.7 12.5 2.9 17.3 5.5 21.5 2.4 3.9 8.2 8.5 11 8.7 1.2.1 2.1.4 2.1.7 0 .3 1.6.5 3.5.6 2 0 3.2-.3 2.8-.9-.4-.6-.1-.7.8-.1 1.8 1.1 27.9 1.2 27.9.1 0-.4.6-.5 1.3 0 1.7 1.1 14.7 1.1 14.7.1 0-.5.6-.6 1.3-.1 1.9 1.2 6.1 1.2 6.9-.1.5-.7.8-.7.8 0 0 1.1 5.7 1.3 7.5.3.6-.4 1.8-.5 2.8-.4.9.2 1.7 0 1.7-.4 0-.3 1.5-1.4 3.3-2.4 3.8-2.1 9.2-9.2 9-12-.2-1.5.1-1.6 1.3-.6.8.6 1.2 1.4.9 1.7-.3.3 0 1.1.6 1.9.6.7.9 1.3.5 1.3-.7 0 1.9 3.2 4.9 6.2 1.8 1.8 5 3.5 8 4.4 3.9 1.1 5.5 1.2 5.5.1 0-.8.3-.9.8-.1.8 1.1 9 1.3 10.8.2.6-.4 1.4-.4 1.8 0 1 .9 17.6 1 18.2 0 .3-.4 1.3-.4 2.2.1 2 .9 8.2.9 9.8-.2.6-.3 1.4-.3 1.8.1 1.2 1.1 23 .9 23.8-.3.5-.6.8-.6.8.2s.8.9 2.8.3c1.5-.4 3.3-.9 4.1-1.1.7-.2 3.4-2.2 5.8-4.4 4.6-4.1 7.3-8.9 7.8-14 .3-2.9 1.2-8.3 2.1-12.9.2-1.1.6-3.2.9-4.6.6-3.2 1.3-6.4 2.1-9.3.3-1.2.7-3.4.8-5 0-1.5.4-2.7.8-2.7.5 0 .7-.3.6-.8-.3-1 1.6-11.8 2.2-12.5.1-.1.3-1.1.5-2.2 1.2-6.6 2.6-9.8 5.4-12.3 3.7-3.3 4.4-3.7 6.1-3.8 5-.5 8-3.5 6-5.9-1.8-2.1-62.4-2.2-67.4-.1-4.1 1.7-10.6 7.3-10.6 9.2 0 .8-.4 1.4-.9 1.4-1.1 0-4.3 13.8-3.5 15.1.3.5 0 .9-.6.9-.7 0-1 .6-.7 1.3.3.8.1 2-.4 2.8-.7 1.1-.9.9-.9-.9 0-2.7.1-2.3-1.5-7.4-.6-2.4-1.1-5.1-.9-6.1.1-.9-.2-1.7-.7-1.7-.5 0-.9-1.1-.9-2.5s-.4-2.5-1-2.5c-.5 0-1-.6-1-1.3 0-1.6-7.4-8-10.3-8.9-3.2-.9-72.8-.8-75.2.1z"/></svg>