<svg width="100" height="60" fill="none" xmlns="http://www.w3.org/2000/svg"><g clip-path="url(#a)"><path d="m2.972 33.252 3.264 17.485h.369L9.79 33.251h2.973L8.285 54.206c-.44 2.125-.88 3.36-1.54 4.22-.379.504-.868.91-1.428 1.19a3.96 3.96 0 0 1-1.8.414v-2.32c.327-.013.645-.113.922-.289s.505-.422.66-.715a4.976 4.976 0 0 0 .767-2.052l.333-1.575h-.518a2.162 2.162 0 0 1-1.219-.587 2.23 2.23 0 0 1-.646-1.205L0 33.28l2.972-.029Zm17.942 0c1.582 0 4.107.115 5.945 2.059 1.646 1.792 1.865 4.443 1.865 6.084 0 1.64-.22 4.335-1.865 6.09-1.838 1.944-4.363 2.06-5.945 2.06H19.41V59.4h-2.788V33.252h4.292ZM19.41 47.073h1.837a4.237 4.237 0 0 0 2.047-.335 4.316 4.316 0 0 0 1.656-1.27c.81-1.12.916-2.687.916-4.11 0-1.424-.107-2.985-.916-4.105a4.31 4.31 0 0 0-1.654-1.274 4.229 4.229 0 0 0-2.049-.337H19.41v11.43Zm21.673-13.821 4.731 23.569h.518v2.58h-15.04v-2.58h.511l4.718-23.57h4.562ZM34.698 56.82h8.286l-3.852-21.474h-.59L34.699 56.82Zm19.005-23.569v11.561h3.49v-.672a24.64 24.64 0 0 1 .767-6.611c.95-2.955 2.788-4.856 5.98-4.856 3.192 0 5.058 1.828 5.974 4.856.227.672.808 2.89.808 8.815 0 5.925-.624 8.179-.808 8.815-.88 2.89-2.604 4.855-5.868 4.855h-.106c-3.228 0-5.065-1.871-5.98-4.855a27.938 27.938 0 0 1-.809-7.32v-.563h-3.448v12.139h-2.78V33.25h2.78Zm6.64 19.574c.511 4.075 2.533 4.632 3.597 4.632s3.115-.557 3.59-4.632c.184-1.445.262-4.892.262-6.503 0-1.756-.113-5.058-.262-6.575-.142-1.236-.582-4.632-3.59-4.632s-3.448 3.396-3.597 4.632c-.184 1.676-.29 4.74-.29 6.575a62.944 62.944 0 0 0 .29 6.503ZM85.33 33.252v2.47h-6.677V59.4h-2.788V33.252h9.464Zm9.243 0L100 59.4h-2.894l-1.547-8.215h-6.54l-1.54 8.215h-2.895l5.427-26.148h4.562Zm-5.1 15.614h5.675l-2.583-13.52h-.51l-2.583 13.52Z" fill="#000"/><path d="M72.971.014H61.805a4.26 4.26 0 0 0-2.593 1.109 4.4 4.4 0 0 0-1.366 2.504l-1.603 7.724-.468 2.695a3.202 3.202 0 0 1-.996 1.825 3.1 3.1 0 0 1-1.892.805.586.586 0 0 0-.37.207.607.607 0 0 0 .024.802.586.586 0 0 0 .382.183h11.159a4.274 4.274 0 0 0 2.6-1.107 4.415 4.415 0 0 0 1.373-2.505l.46-2.674 1.604-7.724a3.202 3.202 0 0 1 .996-1.825 3.1 3.1 0 0 1 1.892-.805.586.586 0 0 0 .37-.207.606.606 0 0 0-.025-.802.584.584 0 0 0-.38-.183V.014Zm-21.297 0H40.515a4.274 4.274 0 0 0-2.595 1.11 4.415 4.415 0 0 0-1.37 2.503l-1.597 7.724-.475 2.695a3.203 3.203 0 0 1-.996 1.825 3.1 3.1 0 0 1-1.892.805.585.585 0 0 0-.369.209.607.607 0 0 0 .029.802.584.584 0 0 0 .383.181h11.16a4.266 4.266 0 0 0 2.596-1.108 4.408 4.408 0 0 0 1.369-2.505l.468-2.673 1.604-7.724a3.202 3.202 0 0 1 .995-1.825 3.1 3.1 0 0 1 1.892-.805.585.585 0 0 0 .394-.195.606.606 0 0 0 .152-.42.604.604 0 0 0-.17-.425.582.582 0 0 0-.419-.174Z" fill="#F9322D"/><path d="M37.564 8.93a.701.701 0 0 1 .455.156c.13.104.22.251.254.415l.433 2.11.504 2.89a4.089 4.089 0 0 0 1.264 2.315 3.95 3.95 0 0 0 2.396 1.03H30.98a3.958 3.958 0 0 1-2.395-1.03 4.089 4.089 0 0 1-1.265-2.315l-.504-2.89-.355-1.712a.817.817 0 0 1 .158-.67.79.79 0 0 1 .609-.298h10.336Zm12.961 8.902a3.958 3.958 0 0 1-2.396-1.03 4.089 4.089 0 0 1-1.265-2.315l-.503-2.89-1.703-8.252a4.089 4.089 0 0 0-1.265-2.314A3.958 3.958 0 0 0 40.997 0h11.876a3.95 3.95 0 0 1 2.393 1.031 4.081 4.081 0 0 1 1.26 2.314l1.71 8.252.497 2.89a4.095 4.095 0 0 0 1.266 2.313 3.96 3.96 0 0 0 2.395 1.032H50.525Z" fill="#000"/><path d="M31.718 2.717c0 .531-.155 1.051-.445 1.493a2.65 2.65 0 0 1-1.184.99 2.595 2.595 0 0 1-1.525.153 2.625 2.625 0 0 1-1.35-.736 2.704 2.704 0 0 1-.723-1.376 2.735 2.735 0 0 1 .15-1.553c.2-.491.538-.91.972-1.206a2.605 2.605 0 0 1 3.332.334c.495.504.773 1.188.773 1.9Z" fill="#F9322D"/></g><defs><clipPath id="a"><path fill="#fff" d="M0 0h100v60H0z"/></clipPath></defs></svg>