<svg width="19" height="20" fill="none" xmlns="http://www.w3.org/2000/svg"><path d="M11.827 5.742h2.835l-.626.633a.79.79 0 0 0 0 1.115.792.792 0 0 0 1.116 0l1.98-1.977a.79.79 0 0 0 0-1.115l-1.98-1.977a.792.792 0 0 0-1.116 1.115l.626.624h-2.835a.792.792 0 0 0-.56 1.35c.15.149.35.232.56.232Zm3.563 5.093c-.174 0-.356-.055-.53-.095-.353-.078-.7-.18-1.038-.308a1.585 1.585 0 0 0-1.963.79l-.174.356a9.643 9.643 0 0 1-2.106-1.581 9.633 9.633 0 0 1-1.583-2.104l.332-.221A1.582 1.582 0 0 0 9.12 5.71a8.163 8.163 0 0 1-.309-1.036 5.859 5.859 0 0 1-.095-.537 2.372 2.372 0 0 0-2.375-1.97H3.966a2.377 2.377 0 0 0-2.296 1.69 2.37 2.37 0 0 0-.079 1.007 15.02 15.02 0 0 0 4.305 8.749 15.048 15.048 0 0 0 8.774 4.268h.3a2.376 2.376 0 0 0 2.17-1.405 2.37 2.37 0 0 0 .205-.975v-2.373a2.37 2.37 0 0 0-1.955-2.293Zm.396 4.745a.79.79 0 0 1-.573.76.84.84 0 0 1-.346.03 13.463 13.463 0 0 1-7.827-3.85 13.438 13.438 0 0 1-3.818-7.838.861.861 0 0 1 .198-.648.791.791 0 0 1 .594-.269h2.375a.792.792 0 0 1 .791.625 8.4 8.4 0 0 0 .12.64c.09.417.212.827.363 1.226l-1.108.514a.792.792 0 0 0-.388 1.052 11.465 11.465 0 0 0 5.542 5.536.792.792 0 0 0 .601 0 .792.792 0 0 0 .452-.412l.49-1.107c.41.147.827.268 1.251.364.211.048.425.087.642.119a.791.791 0 0 1 .625.79l.016 2.468Z" fill="#fff"/></svg>