<svg width="19" height="19" fill="none" xmlns="http://www.w3.org/2000/svg"><path d="M11.828 5.193h2.834l-.626.634a.791.791 0 0 0 0 1.116.791.791 0 0 0 1.117 0l1.979-1.98a.792.792 0 0 0 0-1.115l-1.98-1.98a.791.791 0 0 0-1.116 1.117l.626.625h-2.835a.792.792 0 0 0 0 1.583Zm3.562 5.099c-.174 0-.356-.056-.53-.095a7.316 7.316 0 0 1-1.037-.31 1.583 1.583 0 0 0-1.964.793l-.174.356a9.642 9.642 0 0 1-2.106-1.583 9.643 9.643 0 0 1-1.583-2.106l.332-.222a1.583 1.583 0 0 0 .792-1.963 8.178 8.178 0 0 1-.309-1.037 5.875 5.875 0 0 1-.095-.539 2.375 2.375 0 0 0-2.375-1.971H3.966a2.375 2.375 0 0 0-2.375 2.7 15.042 15.042 0 0 0 13.079 13.03h.3a2.375 2.375 0 0 0 2.17-1.407c.137-.307.207-.64.205-.976v-2.374a2.375 2.375 0 0 0-1.955-2.296Zm.396 4.75a.792.792 0 0 1-.573.76.838.838 0 0 1-.345.031 13.458 13.458 0 0 1-11.646-11.7.863.863 0 0 1 .198-.65.792.792 0 0 1 .594-.269h2.375a.792.792 0 0 1 .791.626 8.4 8.4 0 0 0 .12.64c.09.418.212.828.363 1.228l-1.108.514a.792.792 0 0 0-.388 1.053 11.471 11.471 0 0 0 5.542 5.542c.193.08.409.08.601 0a.791.791 0 0 0 .452-.412l.49-1.108c.41.146.827.268 1.251.364.211.048.425.087.642.119a.792.792 0 0 1 .625.792l.016 2.47Z" fill="#DA0500"/></svg>